<svg width="20" height="20" viewBox="0 0 20 20" fill="none" xmlns="http://www.w3.org/2000/svg">
<path d="M16.25 2.50001H6.50859C6.34438 2.49948 6.1817 2.5316 6.03001 2.59451C5.87832 2.65741 5.74065 2.74983 5.625 2.86641L2.86641 5.62501C2.74983 5.74066 2.6574 5.87833 2.5945 6.03002C2.5316 6.18171 2.49948 6.34439 2.5 6.5086V16.25C2.5 16.5815 2.6317 16.8995 2.86612 17.1339C3.10054 17.3683 3.41848 17.5 3.75 17.5H16.25C16.5815 17.5 16.8995 17.3683 17.1339 17.1339C17.3683 16.8995 17.5 16.5815 17.5 16.25V3.75001C17.5 3.41849 17.3683 3.10054 17.1339 2.86612C16.8995 2.6317 16.5815 2.50001 16.25 2.50001ZM10 14.375C9.50555 14.375 9.0222 14.2284 8.61107 13.9537C8.19995 13.679 7.87952 13.2885 7.6903 12.8317C7.50108 12.3749 7.45157 11.8722 7.54804 11.3873C7.6445 10.9023 7.8826 10.4569 8.23223 10.1072C8.58186 9.75761 9.02732 9.51951 9.51227 9.42304C9.99723 9.32658 10.4999 9.37609 10.9567 9.56531C11.4135 9.75453 11.804 10.075 12.0787 10.4861C12.3534 10.8972 12.5 11.3806 12.5 11.875C12.5 12.538 12.2366 13.1739 11.7678 13.6428C11.2989 14.1116 10.663 14.375 10 14.375ZM13.4375 6.25001C13.4375 6.33289 13.4046 6.41237 13.346 6.47098C13.2874 6.52958 13.2079 6.56251 13.125 6.56251H6.875C6.79212 6.56251 6.71263 6.52958 6.65403 6.47098C6.59542 6.41237 6.5625 6.33289 6.5625 6.25001V3.75001H13.4375V6.25001Z" fill="#FD7F7F"/>
</svg>
