<svg width="16" height="16" viewBox="0 0 16 16" fill="none" xmlns="http://www.w3.org/2000/svg">
<path d="M13.7069 6.15375C14.0783 6.77884 14.322 7.47137 14.4241 8.19127C14.5261 8.91118 14.4844 9.64417 14.3013 10.3478C14.1182 11.0515 13.7974 11.7119 13.3575 12.2908C12.9176 12.8697 12.3672 13.3557 11.7383 13.7205C11.1094 14.0854 10.4143 14.3219 9.69341 14.4164C8.97249 14.5109 8.23997 14.4615 7.53824 14.2711C6.83652 14.0807 6.17951 13.7531 5.60522 13.3072C5.03093 12.8612 4.55076 12.3058 4.19249 11.6731L1.63437 7.2425C1.51269 7.01371 1.48456 6.74662 1.55593 6.49751C1.6273 6.2484 1.79258 6.03672 2.01695 5.90707C2.24132 5.77742 2.50726 5.73994 2.75872 5.80251C3.01019 5.86508 3.22755 6.02282 3.36499 6.2425L4.52499 8.25C4.55783 8.30688 4.60154 8.35673 4.65364 8.39672C4.70573 8.4367 4.7652 8.46604 4.82863 8.48304C4.89206 8.50005 4.95823 8.50439 5.02334 8.49582C5.08845 8.48726 5.15124 8.46595 5.20812 8.43312C5.265 8.40029 5.31485 8.35658 5.35484 8.30448C5.39482 8.25238 5.42416 8.19292 5.44116 8.12949C5.45817 8.06605 5.46251 7.99989 5.45395 7.93478C5.44538 7.86966 5.42408 7.80688 5.39124 7.75L2.93749 3.5C2.81581 3.27121 2.78769 3.00412 2.85906 2.75501C2.93042 2.5059 3.09571 2.29422 3.32008 2.16457C3.54445 2.03492 3.81038 1.99744 4.06185 2.06001C4.31331 2.12258 4.53067 2.28032 4.66812 2.5L7.12499 6.75C7.15686 6.80867 7.20015 6.86037 7.25232 6.90205C7.30448 6.94372 7.36447 6.97453 7.42873 6.99264C7.493 7.01076 7.56024 7.01582 7.62649 7.00753C7.69274 6.99924 7.75666 6.97776 7.81448 6.94436C7.8723 6.91097 7.92284 6.86633 7.96312 6.81308C8.00341 6.75984 8.03262 6.69906 8.04904 6.63434C8.06546 6.56962 8.06875 6.50227 8.05871 6.43626C8.04868 6.37025 8.02553 6.30692 7.99062 6.25L6.11562 3C5.98689 2.77056 5.95376 2.49965 6.0234 2.24595C6.09305 1.99226 6.25986 1.77623 6.48769 1.64468C6.71552 1.51313 6.98601 1.47666 7.24054 1.54317C7.49507 1.60968 7.71314 1.77381 7.84749 2L10.375 6.3825C9.81611 6.94573 9.50173 7.70654 9.49999 8.5C9.49813 9.14941 9.70886 9.78159 10.1 10.3C10.139 10.3536 10.1883 10.399 10.245 10.4334C10.3017 10.4678 10.3647 10.4906 10.4302 10.5005C10.4958 10.5103 10.5627 10.507 10.627 10.4907C10.6913 10.4745 10.7517 10.4456 10.8048 10.4057C10.8578 10.3659 10.9024 10.3159 10.9359 10.2587C10.9694 10.2014 10.9912 10.1381 11 10.0724C11.0088 10.0066 11.0044 9.93979 10.9872 9.87576C10.9699 9.81172 10.94 9.75176 10.8994 9.69937C10.7412 9.48821 10.6264 9.24784 10.5615 8.99211C10.4967 8.73638 10.4831 8.47034 10.5215 8.20932C10.5599 7.94831 10.6495 7.69747 10.7853 7.47125C10.921 7.24504 11.1002 7.04792 11.3125 6.89125C11.4112 6.8182 11.4796 6.71139 11.5046 6.59117C11.5296 6.47095 11.5095 6.34573 11.4481 6.23937L10.7319 5C10.6031 4.77056 10.57 4.49965 10.6397 4.24595C10.7093 3.99226 10.8761 3.77623 11.1039 3.64468C11.3318 3.51313 11.6023 3.47666 11.8568 3.54317C12.1113 3.60968 12.3294 3.77381 12.4637 4L13.7069 6.15375ZM11.8712 2.59125C12.2216 2.68356 12.5501 2.84459 12.8376 3.06498C13.1252 3.28536 13.366 3.5607 13.5462 3.875L13.5669 3.91062C13.6332 4.0255 13.7424 4.10932 13.8705 4.14367C13.9339 4.16067 14.0001 4.16501 14.0652 4.15645C14.1303 4.14788 14.1931 4.12658 14.25 4.09375C14.3069 4.06092 14.3567 4.01721 14.3967 3.96511C14.4367 3.91301 14.466 3.85355 14.483 3.79011C14.5 3.72668 14.5044 3.66052 14.4958 3.5954C14.4873 3.53029 14.466 3.4675 14.4331 3.41062L14.4125 3.375C14.1668 2.94654 13.8383 2.5712 13.4463 2.27077C13.0542 1.97035 12.6064 1.75084 12.1287 1.625C12.001 1.59196 11.8653 1.61077 11.7514 1.67733C11.6374 1.74389 11.5544 1.8528 11.5204 1.98032C11.4864 2.10784 11.5043 2.24362 11.57 2.35806C11.6357 2.4725 11.744 2.55632 11.8712 2.59125ZM4.97374 14.1075C4.32585 13.5962 3.7817 12.9657 3.37062 12.25C3.33779 12.1931 3.29408 12.1433 3.24198 12.1033C3.18988 12.0633 3.13042 12.034 3.06698 12.017C3.00355 12 2.93739 11.9956 2.87227 12.0042C2.80716 12.0127 2.74437 12.034 2.68749 12.0669C2.63062 12.0997 2.58076 12.1434 2.54078 12.1955C2.50079 12.2476 2.47146 12.3071 2.45445 12.3705C2.43745 12.4339 2.4331 12.5001 2.44167 12.5652C2.45023 12.6303 2.47154 12.6931 2.50437 12.75C2.9789 13.5755 3.60683 14.3027 4.35437 14.8925C4.45863 14.9727 4.59031 15.0086 4.72085 14.9924C4.8514 14.9762 4.9703 14.9092 5.05179 14.8059C5.13327 14.7026 5.17077 14.5714 5.15616 14.4407C5.14156 14.31 5.07601 14.1902 4.97374 14.1075Z" fill="#636363"/>
</svg>
