<svg width="92" height="21" viewBox="0 0 92 21" fill="none" xmlns="http://www.w3.org/2000/svg">
<g clip-path="url(#clip0_124_44)">
<path d="M22.3855 1.23985L22.4129 1.23386V1.02153H16.8175L11.622 13.2328L6.42643 1.02166H0.396844V1.23386L0.423847 1.23985C1.44512 1.4704 1.96379 1.81418 1.96379 3.0539V17.5686C1.96379 18.8084 1.44321 19.1522 0.421809 19.3827L0.394806 19.3887V19.6016H4.48578V19.3895L4.45864 19.3834C3.43737 19.153 2.91883 18.8091 2.91883 17.5693V3.89584L9.59305 19.6016H9.97161L16.8402 3.45793V17.9278C16.7527 18.907 16.2389 19.2094 15.314 19.4182L15.2866 19.4245V19.6349H22.4129V19.4245L22.3855 19.4182C21.4596 19.2094 20.9335 18.907 20.846 17.9278L20.8412 3.0539H20.846C20.846 1.81418 21.3645 1.4704 22.3855 1.23985ZM25.6405 10.855C25.7571 8.24715 26.6937 6.36483 28.2652 6.33235C28.75 6.34038 29.1565 6.49947 29.4726 6.80542C30.1441 7.45731 30.4598 8.81944 30.411 10.855H25.6405ZM25.5701 11.5899H33.9223V11.5549C33.8986 9.56075 33.321 8.0096 32.2071 6.94451C31.2443 6.02398 29.8188 5.51755 28.3214 5.51755H28.2879C27.5108 5.51755 26.5576 5.70606 25.8794 6.04742C25.1074 6.40496 24.4264 6.93942 23.8599 7.64099C22.9477 8.7713 22.3952 10.2988 22.2608 12.0154C22.2566 12.0668 22.2527 12.1183 22.2491 12.1697C22.2458 12.2186 22.243 12.2674 22.2408 12.3163C22.2288 12.5577 22.2248 12.7994 22.2288 13.041C22.3193 16.9289 24.4194 20.0359 28.1495 20.0359C31.4237 20.0359 33.3304 17.6424 33.8058 14.4298L33.5656 14.3453C32.7304 16.0719 31.2303 17.1183 29.523 16.9907C27.1925 16.8163 25.4071 14.4532 25.5691 11.5907M43.3659 16.8587C43.0919 17.5085 42.5203 17.866 41.7543 17.866C40.9882 17.866 40.2878 17.3401 39.7904 16.3846C39.2558 15.3589 38.9746 13.909 38.9746 12.1915C38.9746 8.61654 40.0864 6.30433 41.8074 6.30433C42.5279 6.30433 43.0952 6.66187 43.3659 7.28562V16.8587ZM48.9065 19.4072C47.8851 19.1656 47.3667 18.8057 47.3667 17.5028V0.166733L41.1616 1.99492V2.21871L41.1997 2.21566C42.0556 2.14649 42.6362 2.26482 42.9733 2.57612C43.2373 2.82004 43.3659 3.19426 43.3659 3.72082V6.09761C42.7541 5.70695 42.0265 5.51678 41.1435 5.51678C39.3528 5.51678 37.716 6.27083 36.5357 7.64035C35.3052 9.06757 34.6547 11.018 34.6547 13.2802C34.6543 17.3205 36.6433 20.0359 39.6033 20.0359C41.3349 20.0359 42.7281 19.0871 43.3659 17.4868V19.6349H48.9335V19.4126L48.9065 19.4072ZM54.2283 2.52441C54.2283 1.26291 53.2771 0.311429 52.0152 0.311429C50.7594 0.311429 49.7768 1.28354 49.7768 2.52441C49.7768 3.76528 50.7603 4.73739 52.0152 4.73739C53.2771 4.73739 54.2283 3.78591 54.2283 2.52441ZM55.6929 19.4072C54.6715 19.1656 54.1531 18.8057 54.1531 17.5028H54.1487V5.55793L48.5807 7.15659V7.37376L48.6142 7.37681C49.8189 7.48406 50.1487 7.89904 50.1487 9.30677V19.6349H55.7213V19.4126L55.6929 19.4072ZM69.9604 19.4072C68.9391 19.1656 68.4206 18.8057 68.4206 17.5028V5.55793L63.1192 7.10385V7.32166L63.1505 7.32497C64.1355 7.42853 64.42 7.8672 64.42 9.28142V16.832C64.0917 17.4818 63.4756 17.8676 62.7293 17.8938C61.5189 17.8938 60.8523 17.0761 60.8523 15.5917V5.55831L55.2843 7.15684V7.37376L55.3177 7.37681C56.5225 7.48381 56.8526 7.89866 56.8526 9.30677V15.6971C56.8497 16.1431 56.8885 16.5885 56.9685 17.0274L57.0687 17.4634C57.5401 19.1526 58.7752 20.0359 60.7103 20.0359C62.3493 20.0359 63.786 19.0213 64.4188 17.4337V19.6386H69.9868V19.4161L69.9604 19.4072ZM91.5906 19.6349V19.4122L91.5635 19.4058C90.4554 19.1503 90.0237 18.6684 90.0237 17.6875V9.56241C90.0237 7.02896 88.6008 5.51691 86.2174 5.51691C84.48 5.51691 83.0151 6.52087 82.4511 8.08475C82.0031 6.42763 80.7139 5.51691 78.8075 5.51691C77.133 5.51691 75.8207 6.40063 75.2577 7.89331V5.55895L69.6897 7.09214V7.31058L69.7232 7.31364C70.9135 7.41923 71.2577 7.84618 71.2577 9.21787V19.6349H76.4528V19.4126L76.4255 19.4058C75.5414 19.1981 75.2561 18.8191 75.2561 17.8469V8.53374C75.4899 7.98744 75.9613 7.34026 76.8932 7.34026C78.0505 7.34026 78.6372 8.1422 78.6372 9.72175V19.6349H83.8336V19.4126L83.8062 19.4058C82.9223 19.1981 82.6369 18.8191 82.6369 17.8469V9.56139C82.6392 9.2516 82.6146 8.94219 82.5633 8.63666C82.8113 8.04298 83.3097 7.34039 84.2797 7.34039C85.4533 7.34039 86.0235 8.11914 86.0235 9.72175V19.6349H91.5906Z" fill="black"/>
</g>
<defs>
<clipPath id="clip0_124_44">
<rect width="91.5813" height="20.3797" fill="white" transform="translate(0.209381)"/>
</clipPath>
</defs>
</svg>
