<svg width="16" height="16" viewBox="0 0 16 16" fill="none" xmlns="http://www.w3.org/2000/svg">
<path d="M15 8.00001C15.0016 8.20509 14.9393 8.40557 14.8216 8.57359C14.704 8.7416 14.537 8.8688 14.3438 8.93751L10.3788 10.3794L8.93751 14.3438C8.86647 14.5351 8.73857 14.7002 8.57098 14.8167C8.40339 14.9333 8.20414 14.9958 8.00001 14.9958C7.79587 14.9958 7.59662 14.9333 7.42904 14.8167C7.26145 14.7002 7.13354 14.5351 7.06251 14.3438L5.62126 10.3788L1.65626 8.93751C1.46488 8.86647 1.29983 8.73857 1.18327 8.57098C1.06672 8.40339 1.00424 8.20414 1.00424 8.00001C1.00424 7.79587 1.06672 7.59662 1.18327 7.42904C1.29983 7.26145 1.46488 7.13354 1.65626 7.06251L5.62126 5.62126L7.06251 1.65626C7.13354 1.46488 7.26145 1.29983 7.42904 1.18327C7.59662 1.06672 7.79587 1.00424 8.00001 1.00424C8.20414 1.00424 8.40339 1.06672 8.57098 1.18327C8.73857 1.29983 8.86647 1.46488 8.93751 1.65626L10.3794 5.62126L14.3438 7.06251C14.537 7.13121 14.704 7.25841 14.8216 7.42643C14.9393 7.59444 15.0016 7.79492 15 8.00001Z" fill="#FEA500"/>
</svg>
