<svg width="24" height="24" viewBox="0 0 24 24" fill="none" xmlns="http://www.w3.org/2000/svg">
<g clip-path="url(#clip0_93_18)">
<path d="M7.875 11.25C7.875 10.4341 8.11693 9.63662 8.57019 8.95827C9.02345 8.27991 9.66769 7.7512 10.4214 7.43899C11.1752 7.12678 12.0046 7.04509 12.8047 7.20426C13.6049 7.36342 14.3399 7.75629 14.9168 8.33318C15.4937 8.91007 15.8866 9.64507 16.0457 10.4452C16.2049 11.2454 16.1232 12.0748 15.811 12.8286C15.4988 13.5823 14.9701 14.2265 14.2917 14.6798C13.6134 15.1331 12.8158 15.375 12 15.375C10.906 15.375 9.85677 14.9404 9.08319 14.1668C8.3096 13.3932 7.875 12.344 7.875 11.25ZM19.7025 16.6106C19.5354 16.5136 19.338 16.483 19.1493 16.5249C18.9607 16.5667 18.7948 16.678 18.6844 16.8366C18.5228 17.0592 18.35 17.2735 18.1669 17.4787C17.6212 16.6868 16.928 16.0075 16.125 15.4781C16.0565 15.4327 15.975 15.4111 15.8931 15.4165C15.8111 15.4219 15.7332 15.4541 15.6713 15.5081C14.6524 16.3897 13.3501 16.875 12.0028 16.875C10.6555 16.875 9.35322 16.3897 8.33438 15.5081C8.27204 15.4528 8.19303 15.4198 8.10983 15.4143C8.02664 15.4089 7.94401 15.4313 7.875 15.4781C7.0719 16.0065 6.37829 16.6848 5.83219 17.4759C4.66093 16.1607 3.94317 14.504 3.78469 12.75H5.22844C5.34984 12.7519 5.46996 12.725 5.57898 12.6716C5.68799 12.6181 5.7828 12.5396 5.85563 12.4425C5.9613 12.298 6.01183 12.1205 5.99808 11.9421C5.98432 11.7636 5.90719 11.5959 5.78063 11.4694L3.53063 9.21937C3.46097 9.14964 3.37826 9.09432 3.28721 9.05657C3.19616 9.01883 3.09856 8.9994 3 8.9994C2.90144 8.9994 2.80385 9.01883 2.7128 9.05657C2.62175 9.09432 2.53903 9.14964 2.46938 9.21937L0.219377 11.4694C0.0928105 11.5959 0.0156832 11.7636 0.00192876 11.9421C-0.0118257 12.1205 0.0386997 12.298 0.144377 12.4425C0.217209 12.5396 0.312014 12.6181 0.421029 12.6716C0.530044 12.725 0.650168 12.7519 0.771565 12.75H2.27813C2.43152 14.744 3.19436 16.6425 4.46323 18.1883C5.7321 19.7341 7.44561 20.8523 9.37146 21.3913C11.2973 21.9303 13.3423 21.8641 15.2293 21.2016C17.1162 20.5391 18.7538 19.3124 19.92 17.6878C19.9802 17.604 20.0224 17.5088 20.0441 17.4079C20.0658 17.3071 20.0664 17.2029 20.046 17.1018C20.0256 17.0007 19.9846 16.9049 19.9255 16.8204C19.8664 16.7359 19.7905 16.6645 19.7025 16.6106ZM23.9428 11.7131C23.8861 11.5761 23.79 11.4589 23.6667 11.3765C23.5433 11.294 23.3983 11.25 23.25 11.25H21.7219C21.5685 9.25602 20.8056 7.35745 19.5368 5.81168C18.2679 4.2659 16.5544 3.1477 14.6285 2.60867C12.7027 2.06964 10.6577 2.13586 8.77073 2.79835C6.88379 3.46084 5.24621 4.68756 4.08 6.31218C3.96389 6.4738 3.91673 6.67492 3.9489 6.87131C3.98108 7.06769 4.08995 7.24325 4.25156 7.35937C4.41318 7.47548 4.6143 7.52264 4.81069 7.49047C5.00708 7.45829 5.18264 7.34942 5.29875 7.18781C6.27992 5.82172 7.65518 4.78816 9.24025 4.22563C10.8253 3.66309 12.5445 3.59847 14.1673 4.04041C15.7901 4.48235 17.2391 5.40974 18.3201 6.6983C19.401 7.98687 20.0623 9.57504 20.2153 11.25H18.75C18.6016 11.2499 18.4565 11.2938 18.333 11.3762C18.2096 11.4586 18.1134 11.5758 18.0565 11.7129C17.9997 11.85 17.9849 12.0009 18.0139 12.1465C18.0428 12.292 18.1144 12.4257 18.2194 12.5306L20.4694 14.7806C20.539 14.8504 20.6217 14.9057 20.7128 14.9434C20.8038 14.9812 20.9014 15.0006 21 15.0006C21.0986 15.0006 21.1962 14.9812 21.2872 14.9434C21.3783 14.9057 21.461 14.8504 21.5306 14.7806L23.7806 12.5306C23.8855 12.4257 23.9569 12.292 23.9857 12.1465C24.0146 12.001 23.9997 11.8501 23.9428 11.7131Z" fill="black"/>
</g>
<defs>
<clipPath id="clip0_93_18">
<rect width="24" height="24" fill="white"/>
</clipPath>
</defs>
</svg>
